<?xml version="1.0" standalone="no"?>
<svg viewBox="0 0 200 200" xmlns="http://www.w3.org/2000/svg">
  <path fill="#F5EFE6" d="M37.9,-63.9C51.4,-57.8,66.4,-52.4,76.2,-41.8C86.1,-31.3,90.8,-15.6,89.3,-0.9C87.7,13.8,79.8,27.7,70,38.3C60.2,48.8,48.4,56.1,36.4,64.8C24.4,73.5,12.2,83.5,-1.3,85.7C-14.8,87.9,-29.5,82.3,-42.8,74.3C-56,66.4,-67.8,56.2,-70.4,43.4C-73,30.6,-66.3,15.3,-66.7,-0.3C-67.2,-15.8,-74.7,-31.7,-69.4,-39.7C-64.1,-47.7,-45.9,-47.8,-32.2,-53.9C-18.5,-59.9,-9.2,-71.9,1.5,-74.4C12.2,-76.9,24.3,-70.1,37.9,-63.9Z" transform="translate(100 100)" />
</svg>
