<svg width="100" height="101" viewBox="0 0 100 101" fill="none" xmlns="http://www.w3.org/2000/svg">
<g clip-path="url(#clip0_39_201)">
<path d="M2.13403 49.7877C2.13169 58.2553 4.34419 66.5232 8.55122 73.8107L1.73169 98.71L27.2129 92.0287C34.2607 95.8654 42.1572 97.8758 50.1817 97.8764H50.2028C76.693 97.8764 98.2567 76.3205 98.268 49.8256C98.2731 36.9869 93.2778 24.9143 84.202 15.8314C75.1278 6.74941 63.0594 1.74512 50.2008 1.73926C23.7075 1.73926 2.14536 23.2939 2.13442 49.7877" fill="url(#paint0_linear_39_201)"/>
<path d="M0.417969 49.7719C0.415234 58.5441 2.70703 67.1078 7.06406 74.6562L0 100.448L26.3949 93.5273C33.6676 97.4926 41.8559 99.5832 50.1879 99.5863H50.2094C77.65 99.5863 99.9883 77.2551 100 49.8117C100.005 36.5117 94.8297 24.0051 85.4297 14.5969C76.0285 5.18984 63.5285 0.00546875 50.2094 0C22.7641 0 0.428906 22.3281 0.417969 49.7719ZM16.1371 73.3563L15.1516 71.7918C11.0086 65.2043 8.82187 57.5918 8.825 49.775C8.83359 26.9645 27.3977 8.40625 50.225 8.40625C61.2797 8.41094 71.6687 12.7203 79.4828 20.5391C87.2965 28.3586 91.5961 38.7531 91.5934 49.8086C91.5832 72.6191 73.0187 91.1797 50.2094 91.1797H50.193C42.766 91.1758 35.482 89.1812 29.1297 85.4121L27.618 84.5156L11.9547 88.6223L16.1371 73.3563Z" fill="url(#paint1_linear_39_201)"/>
<path d="M37.7649 28.9637C36.8329 26.8922 35.852 26.8504 34.9657 26.8141C34.2399 26.7829 33.4102 26.7852 32.5813 26.7852C31.7516 26.7852 30.4036 27.0973 29.2641 28.3414C28.1235 29.5868 24.9094 32.5961 24.9094 38.7168C24.9094 44.8375 29.3676 50.7532 29.9891 51.584C30.6114 52.4133 38.5957 65.3758 51.2411 70.3625C61.7504 74.5067 63.8891 73.6825 66.17 73.4746C68.4512 73.2676 73.5309 70.4661 74.5672 67.561C75.6043 64.6563 75.6043 62.1664 75.2934 61.6461C74.9825 61.1278 74.1528 60.8164 72.9086 60.1946C71.6645 59.5727 65.5477 56.5625 64.4075 56.1473C63.2668 55.7325 62.4375 55.5254 61.6079 56.7711C60.7782 58.0149 58.3958 60.8164 57.6696 61.6461C56.9442 62.4778 56.218 62.5813 54.9743 61.959C53.7293 61.3348 49.7227 60.0227 44.9692 55.7848C41.2708 52.4871 38.7739 48.4149 38.0481 47.1692C37.3223 45.9254 37.9704 45.2512 38.5942 44.6313C39.1532 44.0739 39.8387 43.1786 40.4614 42.4524C41.0817 41.7258 41.2887 41.2075 41.7036 40.3778C42.1188 39.5473 41.911 38.8207 41.6004 38.1985C41.2887 37.5762 38.8711 31.4235 37.7649 28.9637Z" fill="white"/>
</g>
<defs>
<linearGradient id="paint0_linear_39_201" x1="4828.55" y1="9698.81" x2="4828.55" y2="1.73926" gradientUnits="userSpaceOnUse">
<stop stop-color="#1FAF38"/>
<stop offset="1" stop-color="#60D669"/>
</linearGradient>
<linearGradient id="paint1_linear_39_201" x1="5000" y1="10044.8" x2="5000" y2="0" gradientUnits="userSpaceOnUse">
<stop stop-color="#F9F9F9"/>
<stop offset="1" stop-color="white"/>
</linearGradient>
<clipPath id="clip0_39_201">
<rect width="100" height="100.781" fill="white"/>
</clipPath>
</defs>
</svg>
