<svg width="505" height="76" viewBox="0 0 505 76" fill="none" xmlns="http://www.w3.org/2000/svg">
<path d="M30.496 24.02C30.496 28.664 29.2633 32.104 26.798 34.34C24.3327 36.5187 20.692 37.608 15.876 37.608H7.792V61H0.31V0.799996H15.704C20.5773 0.799996 24.2467 1.88933 26.712 4.06799C29.2347 6.18933 30.496 9.572 30.496 14.216V24.02ZM23.014 13.442C23.014 11.2633 22.498 9.68666 21.466 8.712C20.4913 7.73733 18.9147 7.25 16.736 7.25H7.792V31.158H16.736C18.9147 31.158 20.4913 30.6707 21.466 29.696C22.498 28.664 23.014 27.0587 23.014 24.88V13.442ZM41.2843 18H48.1643V20.322C50.0563 18.774 52.3496 18 55.0443 18H61.3223V24.88H54.1843C52.2923 24.88 50.8876 25.5107 49.9703 26.772C49.053 28.0333 48.5943 29.266 48.5943 30.47V61H41.2843V18ZM69.493 8.54V0.799996H77.663V8.54H69.493ZM69.923 61V18H77.233V61H69.923ZM91.003 18H97.883V20.064C99.6604 18.688 101.954 18 104.763 18H105.279C110.496 18 114.223 19.3187 116.459 21.956C118.58 19.3187 121.533 18 125.317 18H125.833C130.477 18 133.917 19.0893 136.153 21.268C138.446 23.4467 139.593 26.944 139.593 31.76V61H132.283V30.04C132.283 28.32 131.767 26.9727 130.735 25.998C129.76 24.966 128.413 24.45 126.693 24.45H124.457C122.68 24.45 121.332 24.9947 120.415 26.084C119.555 27.116 119.068 28.234 118.953 29.438V61H111.643V30.04C111.643 28.32 111.156 26.9727 110.181 25.998C109.206 24.966 107.859 24.45 106.139 24.45H103.903C102.068 24.45 100.664 24.9373 99.689 25.912C98.7717 26.8293 98.313 27.8327 98.313 28.922V61H91.003V18ZM178.27 61C177.524 61 176.693 60.7707 175.776 60.312C174.916 59.8533 174.17 59.2227 173.54 58.42C172.221 60.14 170.472 61 168.294 61H162.36C158.002 61 154.82 60.14 152.814 58.42C150.864 56.6427 149.89 53.6327 149.89 49.39V47.67C149.89 38.7833 154.075 34.34 162.446 34.34H171.39V30.04C171.39 28.2627 170.845 26.8867 169.756 25.912C168.666 24.9373 167.061 24.45 164.94 24.45H153.33V18H164.08C169.068 18 172.737 19.0893 175.088 21.268C177.496 23.4467 178.7 26.944 178.7 31.76V52.4C178.7 53.26 179.015 53.9193 179.646 54.378C180.334 54.7793 181.452 54.98 183 54.98V61H178.27ZM167.434 54.55C169.154 54.55 170.243 54.1487 170.702 53.346C171.16 52.5433 171.39 51.5113 171.39 50.25V40.79H162.36C160.869 40.79 159.636 41.2773 158.662 42.252C157.687 43.2267 157.2 44.4593 157.2 45.95V50.25C157.2 51.7407 157.544 52.83 158.232 53.518C158.92 54.206 160.009 54.55 161.5 54.55H167.434ZM193.296 18H200.176V20.064C201.953 18.688 204.247 18 207.056 18H208.432C213.477 18 217.175 19.0893 219.526 21.268C221.877 23.3893 223.052 26.8867 223.052 31.76V47.24C223.052 52.056 221.848 55.5533 219.44 57.732C217.089 59.9107 213.42 61 208.432 61H200.606V75.62H193.296V18ZM206.196 24.45C204.304 24.45 202.899 24.966 201.982 25.998C201.065 26.9727 200.606 28.0333 200.606 29.18V54.55H209.292C211.413 54.55 213.019 54.0627 214.108 53.088C215.197 52.1133 215.742 50.7373 215.742 48.96V30.04C215.742 28.2627 215.197 26.8867 214.108 25.912C213.019 24.9373 211.413 24.45 209.292 24.45H206.196ZM257.374 59.022C255.482 60.3407 253.189 61 250.494 61H249.29C244.646 61 241.177 59.9107 238.884 57.732C236.648 55.5533 235.53 52.056 235.53 47.24V18H242.84V48.96C242.84 50.68 243.327 52.056 244.302 53.088C245.334 54.0627 246.71 54.55 248.43 54.55H251.354C253.189 54.55 254.536 54.0913 255.396 53.174C256.313 52.2567 256.829 51.2247 256.944 50.078V18H264.254V61H257.374V59.022ZM287.496 61C284.572 61 282.336 60.054 280.788 58.162C279.24 56.27 278.466 53.776 278.466 50.68V24.45H272.876V18H278.466V7.68H285.776V18H295.752V24.45H285.776V51.11C285.776 52.3713 286.092 53.26 286.722 53.776C287.353 54.292 288.328 54.55 289.646 54.55H295.752V61H287.496ZM304.743 18H311.623V20.322C313.515 18.774 315.809 18 318.503 18H324.781V24.88H317.643C315.751 24.88 314.347 25.5107 313.429 26.772C312.512 28.0333 312.053 29.266 312.053 30.47V61H304.743V18ZM358.332 61C357.587 61 356.755 60.7707 355.838 60.312C354.978 59.8533 354.233 59.2227 353.602 58.42C352.283 60.14 350.535 61 348.356 61H342.422C338.065 61 334.883 60.14 332.876 58.42C330.927 56.6427 329.952 53.6327 329.952 49.39V47.67C329.952 38.7833 334.137 34.34 342.508 34.34H351.452V30.04C351.452 28.2627 350.907 26.8867 349.818 25.912C348.729 24.9373 347.123 24.45 345.002 24.45H333.392V18H344.142C349.13 18 352.799 19.0893 355.15 21.268C357.558 23.4467 358.762 26.944 358.762 31.76V52.4C358.762 53.26 359.077 53.9193 359.708 54.378C360.396 54.7793 361.514 54.98 363.062 54.98V61H358.332ZM347.496 54.55C349.216 54.55 350.305 54.1487 350.764 53.346C351.223 52.5433 351.452 51.5113 351.452 50.25V40.79H342.422C340.931 40.79 339.699 41.2773 338.724 42.252C337.749 43.2267 337.262 44.4593 337.262 45.95V50.25C337.262 51.7407 337.606 52.83 338.294 53.518C338.982 54.206 340.071 54.55 341.562 54.55H347.496ZM372.069 61V52.4H380.669V61H372.069Z" fill="#F5EFE6"/>
<path d="M415.625 59.022C413.733 60.3407 411.439 61 408.745 61H406.939C401.893 61 398.195 59.9393 395.845 57.818C393.494 55.6393 392.319 52.1133 392.319 47.24V31.76C392.319 26.944 393.494 23.4467 395.845 21.268C398.253 19.0893 401.951 18 406.939 18H415.195V0.799996H422.505V61H415.625V59.022ZM409.605 54.55C411.497 54.55 412.901 54.0627 413.819 53.088C414.736 52.056 415.195 50.9667 415.195 49.82V24.45H406.079C403.957 24.45 402.352 24.9373 401.263 25.912C400.173 26.8867 399.629 28.2627 399.629 30.04V48.96C399.629 50.7373 400.173 52.1133 401.263 53.088C402.352 54.0627 403.957 54.55 406.079 54.55H409.605ZM450.023 61C444.977 61 441.279 59.9393 438.929 57.818C436.578 55.6393 435.403 52.1133 435.403 47.24V31.76C435.403 26.8293 436.463 23.3033 438.585 21.182C440.706 19.0607 444.232 18 449.163 18H451.485C455.555 18 458.623 19.1467 460.687 21.44C462.808 23.676 463.869 26.9727 463.869 31.33V42.51H442.713V48.96C442.713 50.7373 443.257 52.1133 444.347 53.088C445.436 54.0627 447.041 54.55 449.163 54.55H461.117V61H450.023ZM456.731 36.06V29.61C456.731 28.1193 456.243 26.8867 455.269 25.912C454.294 24.9373 453.061 24.45 451.571 24.45H448.303C446.239 24.45 444.777 24.9373 443.917 25.912C443.114 26.8293 442.713 28.2053 442.713 30.04V36.06H456.731ZM493.382 61H482.804L471.194 18H479.02L488.308 54.894L497.338 18H504.906L493.382 61Z" fill="#FF4C4C"/>
</svg>
